<svg width="96" height="96" xmlns="http://www.w3.org/2000/svg" xmlns:xlink="http://www.w3.org/1999/xlink" xml:space="preserve" overflow="hidden"><g><path d="M92 33 94 33 94 35 92 35Z"/><path d="M88 33 90 33 90 35 88 35Z"/><path d="M76 33 78 33 78 35 76 35Z"/><path d="M80 33 82 33 82 35 80 35Z"/><path d="M72 33 74 33 74 35 72 35Z"/><path d="M84 33 86 33 86 35 84 35Z"/><path d="M68 33 70 33 70 35 68 35Z"/><path d="M68 25 70 25 70 27 68 27Z"/><path d="M68 29 70 29 70 31 68 31Z"/><path d="M68 13 70 13 70 15 68 15Z"/><path d="M68 21 70 21 70 23 68 23Z"/><path d="M68 17 70 17 70 19 68 19Z"/><path d="M68 9 70 9 70 11 68 11Z"/><path d="M88 9 90 9 90 11 88 11Z"/><path d="M80 9 82 9 82 11 80 11Z"/><path d="M76 9 78 9 78 11 76 11Z"/><path d="M72 9 74 9 74 11 72 11Z"/><path d="M84 9 86 9 86 11 84 11Z"/><path d="M92 9 94 9 94 11 92 11Z"/><path d="M92 17 94 17 94 19 92 19Z"/><path d="M92 25 94 25 94 27 92 27Z"/><path d="M92 21 94 21 94 23 92 23Z"/><path d="M92 29 94 29 94 31 92 31Z"/><path d="M92 13 94 13 94 15 92 15Z"/><path d="M13.001 19.983 13.001 22 65 21.983 65 19.983 13.001 19.983Z"/><path d="M81.004 30 83.004 30 83.004 21.983 83.004 19.983 81.004 19.983 73 19.983 73 21.983 81.004 21.983 81.004 30Z"/><path d="M13.001 49 13.001 63.995 13.001 65.995 15.001 65.995 81.004 65.995 83.004 65.995 83.004 63.995 83.004 38 81.004 38 81.004 63.995 15.001 63.995 15.001 49 13.001 49Z"/><path d="M10 18.982C10 17.8774 10.8954 16.982 12 16.982L65 16.982 65 14.982 12 14.982C9.7936 14.9886 8.00659 16.7756 8 18.982L8 22 10 22Z"/><path d="M86 18.982 86 30 88 30 88 18.982C87.9934 16.7756 86.2064 14.9886 84 14.982L73 14.982 73 16.982 84 16.982C85.1046 16.982 86 17.8774 86 18.982Z"/><path d="M86 67C86 68.1046 85.1046 69 84 69L12 69C10.8954 69 10 68.1046 10 67L10 49 8 49 8 67C8.00714 69.2062 9.79382 70.9929 12 71L41 71 41 81 30 81 30 83 66 83 66 81 55 81 55 71 84 71C86.2062 70.9929 87.9929 69.2062 88 67L88 38 86 38ZM53 81 43 81 43 71 53 71Z"/><path d="M28 25 2 25 2 46 28 46ZM26 44 4 44 4 27 26 27Z"/><path d="M9 31 21 31 21 33 9 33Z"/><path d="M9 37 17 37 17 39 9 39Z"/><path d="M48 57C55.732 57 62 50.732 62 43 62 35.268 55.732 29 48 29 40.268 29 34 35.268 34 43 34.0083 50.7286 40.2714 56.9917 48 57ZM41.013 52.737C41.159 48.8782 44.4056 45.8684 48.2644 46.0144 51.9184 46.1526 54.8487 49.083 54.987 52.737 50.8176 55.7542 45.1824 55.7542 41.013 52.737ZM45 41C45 39.3431 46.3431 38 48 38 49.6569 38 51 39.3431 51 41 51 42.6569 49.6569 44 48 44 46.3431 44 45 42.6569 45 41ZM48 31C54.6164 30.9898 59.9883 36.3451 59.9985 42.9614 60.0032 45.9904 58.8604 48.9087 56.8 51.129 56.1722 48.2092 54.1413 45.7886 51.375 44.663 53.4114 42.7979 53.5503 39.6352 51.6853 37.5987 49.8202 35.5623 46.6574 35.4234 44.621 37.2885 42.5846 39.1535 42.4457 42.3163 44.3107 44.3527 44.4096 44.4607 44.5131 44.5642 44.621 44.663 41.8562 45.7896 39.827 48.21 39.2 51.129 34.6994 46.2791 34.9826 38.6991 39.8324 34.1985 42.0527 32.1382 44.971 30.9953 48 31Z"/><path d="M75.748 51.608C75.748 51.524 75.664 51.44 75.496 51.356L65.5 48 65.416 48C65.2357 48.0121 65.0921 48.1557 65.08 48.336L65.08 48.42 68.357 58.5C68.4373 58.6574 68.6003 58.7552 68.777 58.752 68.861 58.752 68.945 58.668 69.029 58.5L70.284 55.07C70.2873 55.0656 70.2936 55.0647 70.298 55.068 70.2988 55.0686 70.2994 55.0692 70.3 55.07L74.236 59 76 57.236 72.064 53.3C72.0593 53.2961 72.0586 53.2892 72.0625 53.2845 72.0629 53.284 72.0634 53.2835 72.064 53.283L75.5 52.028C75.6559 51.9466 75.752 51.7838 75.748 51.608Z"/></g></svg>