<svg width="469" height="469" xmlns="http://www.w3.org/2000/svg" xmlns:xlink="http://www.w3.org/1999/xlink" xml:space="preserve" overflow="hidden"><g><path d="M161.219 134.769 145.131 118.681 138.223 125.589 161.219 148.585 208.641 101.162 201.734 94.2543 161.219 134.769Z"/><path d="M239.385 122.135 332.208 122.135 332.208 131.906 239.385 131.906Z"/><path d="M161.219 208.05 145.131 191.963 138.223 198.871 161.219 221.866 208.641 174.444 201.734 167.536 161.219 208.05Z"/><path d="M239.385 195.417 332.208 195.417 332.208 205.188 239.385 205.188Z"/><path d="M161.219 281.332 145.131 265.244 138.223 272.152 161.219 295.148 208.641 247.725 201.734 240.817 161.219 281.332Z"/><path d="M239.385 268.698 332.208 268.698 332.208 278.469 239.385 278.469Z"/><path d="M161.219 354.613 145.131 338.525 138.223 345.433 161.219 368.429 208.641 321.006 201.734 314.098 161.219 354.613Z"/><path d="M239.385 341.979 332.208 341.979 332.208 351.75 239.385 351.75Z"/><path d="M87.9375 429.917 381.062 429.917 381.062 39.0833 87.9375 39.0833ZM97.7083 48.8542 371.292 48.8542 371.292 420.146 97.7083 420.146Z"/></g></svg>